<svg xmlns="http://www.w3.org/2000/svg" width="20" height="20" viewBox="0 0 16 16"><path fill="currentColor" d="M0 8a8 8 0 1 1 16 0A8 8 0 0 1 0 8m7.5-6.923c-.67.204-1.335.82-1.887 1.855A8 8 0 0 0 5.145 4H7.5zM4.09 4a9.3 9.3 0 0 1 .64-1.539a7 7 0 0 1 .597-.933A7.03 7.03 0 0 0 2.255 4zm-.582 3.5c.03-.877.138-1.718.312-2.5H1.674a7 7 0 0 0-.656 2.5zM4.847 5a12.5 12.5 0 0 0-.338 2.5H7.5V5zM8.5 5v2.5h2.99a12.5 12.5 0 0 0-.337-2.5zM4.51 8.5a12.5 12.5 0 0 0 .337 2.5H7.5V8.5zm3.99 0V11h2.653c.187-.765.306-1.608.338-2.5zM5.145 12A8 8 0 0 0 5.613 13.068c.552 1.035 1.218 1.65 1.887 1.855V12zm.182 2.472a7 7 0 0 1-.597-.933A9.3 9.3 0 0 1 4.09 12H2.255a7.02 7.02 0 0 0 3.072 2.472M3.82 11a13.7 13.7 0 0 1-.312-2.5H1.018a7 7 0 0 0 .656 2.5zM8.5 12v2.923c.67-.204 1.335-.82 1.887-1.855A8 8 0 0 0 10.855 12zm2.766 2.472A7.02 7.02 0 0 0 14.255 12H11.91a9.3 9.3 0 0 1-.64 1.539a7 7 0 0 1-.597.933M12.18 11h2.146a7 7 0 0 0 .656-2.5h-2.49a13.7 13.7 0 0 1-.312 2.5m.326-3.5h2.49a7 7 0 0 0-.656-2.5H12.18c.174.782.282 1.623.312 2.5zM11.91 4h2.345a7.02 7.02 0 0 0-3.072-2.472c.218.284.418.598.597.933A9.3 9.3 0 0 1 11.91 4M10.855 4a8 8 0 0 0-.468-1.068C9.835 1.897 9.17 1.282 8.5 1.077V4z"/></svg>
