<svg xmlns="http://www.w3.org/2000/svg" xmlns:xlink="http://www.w3.org/1999/xlink" width="1600" zoomAndPan="magnify" viewBox="0 0 1200 599.999999" height="800" preserveAspectRatio="xMidYMid meet" version="1.0"><defs><clipPath id="c41470ad5a"><path d="M 334.101562 224.660156 L 338.054688 224.660156 L 338.054688 228.613281 L 334.101562 228.613281 Z M 334.101562 224.660156 " clip-rule="nonzero"/></clipPath><clipPath id="112c4b5d94"><path d="M 336.078125 224.660156 C 334.988281 224.660156 334.101562 225.542969 334.101562 226.636719 C 334.101562 227.726562 334.988281 228.613281 336.078125 228.613281 C 337.171875 228.613281 338.054688 227.726562 338.054688 226.636719 C 338.054688 225.542969 337.171875 224.660156 336.078125 224.660156 Z M 336.078125 224.660156 " clip-rule="nonzero"/></clipPath><clipPath id="79e013096e"><path d="M 166 309 L 171 309 L 171 314 L 166 314 Z M 166 309 " clip-rule="nonzero"/></clipPath><clipPath id="7ce2e5c482"><path d="M 165.992188 311.148438 L 168.929688 309.269531 L 170.808594 312.203125 L 167.871094 314.082031 Z M 165.992188 311.148438 " clip-rule="nonzero"/></clipPath><clipPath id="7831636825"><path d="M 167.460938 310.207031 C 166.648438 310.726562 166.414062 311.804688 166.933594 312.613281 C 167.453125 313.425781 168.53125 313.660156 169.339844 313.144531 C 170.152344 312.625 170.386719 311.546875 169.867188 310.734375 C 169.347656 309.925781 168.269531 309.6875 167.460938 310.207031 Z M 167.460938 310.207031 " clip-rule="nonzero"/></clipPath><clipPath id="95023a346e"><path d="M 131 422 L 138 422 L 138 428 L 131 428 Z M 131 422 " clip-rule="nonzero"/></clipPath><clipPath id="a7542bcb37"><path d="M 130.796875 424.011719 L 135.59375 420.941406 L 138.667969 425.738281 L 133.867188 428.8125 Z M 130.796875 424.011719 " clip-rule="nonzero"/></clipPath><clipPath id="c0d762f96f"><path d="M 133.195312 422.476562 C 131.871094 423.324219 131.484375 425.085938 132.332031 426.410156 C 133.179688 427.738281 134.941406 428.121094 136.269531 427.273438 C 137.59375 426.425781 137.980469 424.664062 137.128906 423.339844 C 136.28125 422.015625 134.519531 421.628906 133.195312 422.476562 Z M 133.195312 422.476562 " clip-rule="nonzero"/></clipPath><clipPath id="179fc45243"><path d="M 858 82 L 862 82 L 862 86 L 858 86 Z M 858 82 " clip-rule="nonzero"/></clipPath><clipPath id="11c2157fe4"><path d="M 859.515625 86.355469 L 857.597656 83.445312 L 860.503906 81.527344 L 862.425781 84.433594 Z M 859.515625 86.355469 " clip-rule="nonzero"/></clipPath><clipPath id="048bc4d0b0"><path d="M 858.554688 84.902344 C 859.085938 85.703125 860.167969 85.925781 860.972656 85.394531 C 861.773438 84.863281 861.996094 83.78125 861.464844 82.980469 C 860.933594 82.175781 859.851562 81.957031 859.050781 82.484375 C 858.246094 83.015625 858.027344 84.097656 858.554688 84.902344 Z M 858.554688 84.902344 " clip-rule="nonzero"/></clipPath><clipPath id="68d7850896"><path d="M 939 159 L 946 159 L 946 165 L 939 165 Z M 939 159 " clip-rule="nonzero"/></clipPath><clipPath id="a0e7c38a27"><path d="M 945.828125 163.726562 L 940.492188 165.71875 L 938.5 160.378906 L 943.835938 158.386719 Z M 945.828125 163.726562 " clip-rule="nonzero"/></clipPath><clipPath id="234ba748c2"><path d="M 943.160156 164.722656 C 944.632812 164.171875 945.382812 162.53125 944.832031 161.058594 C 944.28125 159.582031 942.640625 158.832031 941.167969 159.382812 C 939.695312 159.933594 938.945312 161.574219 939.496094 163.050781 C 940.046875 164.523438 941.6875 165.273438 943.160156 164.722656 Z M 943.160156 164.722656 " clip-rule="nonzero"/></clipPath><clipPath id="bdc04011e8"><path d="M 545 304 L 550 304 L 550 309 L 545 309 Z M 545 304 " clip-rule="nonzero"/></clipPath><clipPath id="a4b082854e"><path d="M 546.871094 308.804688 L 545.074219 305.820312 L 548.058594 304.023438 L 549.859375 307.007812 Z M 546.871094 308.804688 " clip-rule="nonzero"/></clipPath><clipPath id="11d9350f69"><path d="M 545.972656 307.3125 C 546.46875 308.136719 547.539062 308.402344 548.363281 307.90625 C 549.1875 307.410156 549.457031 306.339844 548.960938 305.515625 C 548.460938 304.691406 547.390625 304.425781 546.566406 304.921875 C 545.742188 305.417969 545.476562 306.488281 545.972656 307.3125 Z M 545.972656 307.3125 " clip-rule="nonzero"/></clipPath><clipPath id="dc54bf1d4a"><path d="M 754 550 L 759 550 L 759 554 L 754 554 Z M 754 550 " clip-rule="nonzero"/></clipPath><clipPath id="aae13b90df"><path d="M 754.269531 551.453125 L 757.203125 549.574219 L 759.082031 552.507812 L 756.148438 554.386719 Z M 754.269531 551.453125 " clip-rule="nonzero"/></clipPath><clipPath id="3933d8a575"><path d="M 755.738281 550.511719 C 754.925781 551.03125 754.691406 552.109375 755.207031 552.917969 C 755.726562 553.730469 756.804688 553.964844 757.617188 553.445312 C 758.425781 552.929688 758.664062 551.851562 758.144531 551.039062 C 757.625 550.230469 756.546875 549.992188 755.738281 550.511719 Z M 755.738281 550.511719 " clip-rule="nonzero"/></clipPath><clipPath id="d8014636e7"><path d="M 1135 485 L 1140 485 L 1140 489 L 1135 489 Z M 1135 485 " clip-rule="nonzero"/></clipPath><clipPath id="5140aa0ab7"><path d="M 1134.792969 488.441406 L 1135.785156 484.613281 L 1139.609375 485.609375 L 1138.617188 489.433594 Z M 1134.792969 488.441406 " clip-rule="nonzero"/></clipPath><clipPath id="dd303200c1"><path d="M 1135.289062 486.527344 C 1135.015625 487.585938 1135.648438 488.664062 1136.707031 488.9375 C 1137.761719 489.210938 1138.839844 488.578125 1139.113281 487.519531 C 1139.390625 486.464844 1138.753906 485.386719 1137.699219 485.109375 C 1136.640625 484.835938 1135.5625 485.472656 1135.289062 486.527344 Z M 1135.289062 486.527344 " clip-rule="nonzero"/></clipPath><clipPath id="d8c430191f"><path d="M 854 322 L 861 322 L 861 329 L 854 329 Z M 854 322 " clip-rule="nonzero"/></clipPath><clipPath id="d387c42419"><path d="M 853.664062 324.355469 L 858.460938 321.28125 L 861.535156 326.078125 L 856.734375 329.152344 Z M 853.664062 324.355469 " clip-rule="nonzero"/></clipPath><clipPath id="543458bf79"><path d="M 856.0625 322.816406 C 854.738281 323.667969 854.351562 325.429688 855.199219 326.753906 C 856.046875 328.078125 857.808594 328.464844 859.132812 327.617188 C 860.460938 326.765625 860.84375 325.003906 859.996094 323.679688 C 859.148438 322.355469 857.386719 321.96875 856.0625 322.816406 Z M 856.0625 322.816406 " clip-rule="nonzero"/></clipPath></defs><g clip-path="url(#c41470ad5a)"><g clip-path="url(#112c4b5d94)"><path fill="#aeb2bb" d="M 334.101562 224.660156 L 338.054688 224.660156 L 338.054688 228.613281 L 334.101562 228.613281 Z M 334.101562 224.660156 " fill-opacity="1" fill-rule="nonzero"/></g></g><path stroke-linecap="round" transform="matrix(0.59046, -0.462447, 0.462447, 0.59046, 322.104157, 120.286193)" fill="none" stroke-linejoin="miter" d="M 0.999264 0.99918 L 21.882949 1.001459 " stroke="#5e3aee" stroke-width="2" stroke-opacity="1" stroke-miterlimit="4"/><path stroke-linecap="round" transform="matrix(-0.727108, 0.183885, -0.183885, -0.727108, 111.141735, 61.08937)" fill="none" stroke-linejoin="miter" d="M 1.000591 0.999149 L 19.271676 0.999709 " stroke="#aeb2bb" stroke-width="2" stroke-opacity="1" stroke-miterlimit="4"/><path stroke-linecap="round" transform="matrix(-0.0271243, 0.749509, -0.749509, -0.0271243, 191.505271, 129.341412)" fill="none" stroke-linejoin="miter" d="M 0.998183 0.997622 L 11.911615 0.998764 " stroke="#aeb2bb" stroke-width="2" stroke-opacity="1" stroke-miterlimit="4"/><path stroke-linecap="round" transform="matrix(-0.3705, 0.652096, -0.652096, -0.3705, 1091.13557, 215.764873)" fill="none" stroke-linejoin="miter" d="M 1.000267 0.999377 L 19.270897 0.999784 " stroke="#aeb2bb" stroke-width="2" stroke-opacity="1" stroke-miterlimit="4"/><path stroke-linecap="round" transform="matrix(-0.700924, 0.266844, -0.266844, -0.700924, 1156.567103, 361.717797)" fill="none" stroke-linejoin="miter" d="M 1.002774 0.999004 L 21.883895 1.001426 " stroke="#5e3aee" stroke-width="2" stroke-opacity="1" stroke-miterlimit="4"/><path stroke-linecap="round" transform="matrix(0.423047, 0.619299, -0.619299, 0.423047, 228.999819, 256.355371)" fill="none" stroke-linejoin="miter" d="M 1.001636 0.999309 L 21.886576 0.998306 " stroke="#aeb2bb" stroke-width="2" stroke-opacity="1" stroke-miterlimit="4"/><path stroke-linecap="round" transform="matrix(-0.571995, 0.485099, -0.485099, -0.571995, 293.494618, 333.729087)" fill="none" stroke-linejoin="miter" d="M 0.998673 1.001612 L 11.914251 0.998575 " stroke="#aeb2bb" stroke-width="2" stroke-opacity="1" stroke-miterlimit="4"/><path stroke-linecap="round" transform="matrix(0.219588, -0.717134, 0.717134, 0.219588, 258.998954, 445.358089)" fill="none" stroke-linejoin="miter" d="M 1.002202 1.00187 L 27.871644 0.999391 " stroke="#aeb2bb" stroke-width="2" stroke-opacity="1" stroke-miterlimit="4"/><path stroke-linecap="round" transform="matrix(0.113929, 0.741296, -0.741296, 0.113929, 257.109717, 522.811414)" fill="none" stroke-linejoin="miter" d="M 1.001372 1.002748 L 21.885081 0.997948 " stroke="#aeb2bb" stroke-width="2" stroke-opacity="1" stroke-miterlimit="4"/><path stroke-linecap="round" transform="matrix(-0.206458, 0.721024, -0.721024, -0.206458, 103.921835, 564.952436)" fill="none" stroke-linejoin="miter" d="M 1.001603 0.997127 L 19.270562 0.999431 " stroke="#aeb2bb" stroke-width="2" stroke-opacity="1" stroke-miterlimit="4"/><path stroke-linecap="round" transform="matrix(-0.618337, 0.424452, -0.424452, -0.618337, 41.700145, 513.634222)" fill="none" stroke-linejoin="miter" d="M 1.002023 0.999659 L 21.886077 1.00126 " stroke="#5e3aee" stroke-width="2" stroke-opacity="1" stroke-miterlimit="4"/><g clip-path="url(#79e013096e)"><g clip-path="url(#7ce2e5c482)"><g clip-path="url(#7831636825)"><path fill="#aeb2bb" d="M 165.992188 311.148438 L 168.929688 309.269531 L 170.808594 312.203125 L 167.871094 314.082031 Z M 165.992188 311.148438 " fill-opacity="1" fill-rule="nonzero"/></g></g></g><g clip-path="url(#95023a346e)"><g clip-path="url(#a7542bcb37)"><g clip-path="url(#c0d762f96f)"><path fill="#aeb2bb" d="M 130.796875 424.011719 L 135.59375 420.941406 L 138.667969 425.738281 L 133.867188 428.8125 Z M 130.796875 424.011719 " fill-opacity="1" fill-rule="nonzero"/></g></g></g><path stroke-linecap="round" transform="matrix(0.389893, -0.64069, 0.64069, 0.389893, 58.291669, 332.188746)" fill="none" stroke-linejoin="miter" d="M 0.999167 0.997481 L 27.875862 0.999724 " stroke="#5e3aee" stroke-width="2" stroke-opacity="1" stroke-miterlimit="4"/><path stroke-linecap="round" transform="matrix(0.154576, 0.733898, -0.733898, 0.154576, 479.367964, 70.201738)" fill="none" stroke-linejoin="miter" d="M 0.999635 0.999351 L 19.272068 0.999712 " stroke="#aeb2bb" stroke-width="2" stroke-opacity="1" stroke-miterlimit="4"/><path stroke-linecap="round" transform="matrix(0.657312, 0.361166, -0.361166, 0.657312, 754.62928, 99.345858)" fill="none" stroke-linejoin="miter" d="M 0.999737 0.99854 L 19.274773 1.000429 " stroke="#aeb2bb" stroke-width="2" stroke-opacity="1" stroke-miterlimit="4"/><path stroke-linecap="round" transform="matrix(0.238519, 0.711062, -0.711062, 0.238519, 624.92311, 124.020922)" fill="none" stroke-linejoin="miter" d="M 0.997213 1.000961 L 21.88476 0.997723 " stroke="#5e3aee" stroke-width="2" stroke-opacity="1" stroke-miterlimit="4"/><path stroke-linecap="round" transform="matrix(0.723894, 0.196158, -0.196158, 0.723894, 1124.410849, 109.927465)" fill="none" stroke-linejoin="miter" d="M 0.998654 1.000558 L 19.270718 1.002935 " stroke="#aeb2bb" stroke-width="2" stroke-opacity="1" stroke-miterlimit="4"/><path stroke-linecap="round" transform="matrix(0.693914, -0.284575, 0.284575, 0.693914, 1008.120894, 70.600426)" fill="none" stroke-linejoin="miter" d="M 0.998858 0.996717 L 21.882614 0.998995 " stroke="#5e3aee" stroke-width="2" stroke-opacity="1" stroke-miterlimit="4"/><g clip-path="url(#179fc45243)"><g clip-path="url(#11c2157fe4)"><g clip-path="url(#048bc4d0b0)"><path fill="#aeb2bb" d="M 859.515625 86.355469 L 857.597656 83.445312 L 860.503906 81.527344 L 862.425781 84.433594 Z M 859.515625 86.355469 " fill-opacity="1" fill-rule="nonzero"/></g></g></g><g clip-path="url(#68d7850896)"><g clip-path="url(#a0e7c38a27)"><g clip-path="url(#234ba748c2)"><path fill="#aeb2bb" d="M 945.828125 163.726562 L 940.492188 165.71875 L 938.5 160.378906 L 943.835938 158.386719 Z M 945.828125 163.726562 " fill-opacity="1" fill-rule="nonzero"/></g></g></g><path stroke-linecap="round" transform="matrix(-0.516184, 0.544108, -0.544108, -0.516184, 953.247968, 271.891208)" fill="none" stroke-linejoin="miter" d="M 0.999036 1.001237 L 27.874813 0.998002 " stroke="#5e3aee" stroke-width="2" stroke-opacity="1" stroke-miterlimit="4"/><path stroke-linecap="round" transform="matrix(0.641579, 0.388427, -0.388427, 0.641579, 429.845022, 351.80016)" fill="none" stroke-linejoin="miter" d="M 1.000696 1.002484 L 19.269892 0.998581 " stroke="#aeb2bb" stroke-width="2" stroke-opacity="1" stroke-miterlimit="4"/><path stroke-linecap="round" transform="matrix(0.630784, -0.405724, 0.405724, 0.630784, 463.388645, 217.488937)" fill="none" stroke-linejoin="miter" d="M 1.000094 1.001403 L 21.882164 1.000924 " stroke="#aeb2bb" stroke-width="2" stroke-opacity="1" stroke-miterlimit="4"/><path stroke-linecap="round" transform="matrix(0.469063, 0.585218, -0.585218, 0.469063, 572.975376, 181.980319)" fill="none" stroke-linejoin="miter" d="M 1.000707 1.000303 L 11.912538 1.002261 " stroke="#aeb2bb" stroke-width="2" stroke-opacity="1" stroke-miterlimit="4"/><g clip-path="url(#bdc04011e8)"><g clip-path="url(#a4b082854e)"><g clip-path="url(#11d9350f69)"><path fill="#aeb2bb" d="M 546.871094 308.804688 L 545.074219 305.820312 L 548.058594 304.023438 L 549.859375 307.007812 Z M 546.871094 308.804688 " fill-opacity="1" fill-rule="nonzero"/></g></g></g><path stroke-linecap="round" transform="matrix(-0.448869, -0.600846, 0.600846, -0.448869, 517.780467, 465.103824)" fill="none" stroke-linejoin="miter" d="M 0.998464 1.000766 L 19.273497 1.000725 " stroke="#aeb2bb" stroke-width="2" stroke-opacity="1" stroke-miterlimit="4"/><path stroke-linecap="round" transform="matrix(-0.702518, 0.262618, -0.262618, -0.702518, 427.22931, 573.046508)" fill="none" stroke-linejoin="miter" d="M 0.997657 1.000744 L 11.912969 0.999842 " stroke="#aeb2bb" stroke-width="2" stroke-opacity="1" stroke-miterlimit="4"/><path stroke-linecap="round" transform="matrix(-0.515425, -0.544827, 0.544827, -0.515425, 400.509447, 459.079464)" fill="none" stroke-linejoin="miter" d="M 0.999495 0.999914 L 21.885565 0.999148 " stroke="#5e3aee" stroke-width="2" stroke-opacity="1" stroke-miterlimit="4"/><path stroke-linecap="round" transform="matrix(0.502272, 0.556976, -0.556976, 0.502272, 677.860292, 457.748352)" fill="none" stroke-linejoin="miter" d="M 1.000179 1.001778 L 11.912284 1.002463 " stroke="#aeb2bb" stroke-width="2" stroke-opacity="1" stroke-miterlimit="4"/><path stroke-linecap="round" transform="matrix(-0.241693, 0.709989, -0.709989, -0.241693, 982.163215, 410.762954)" fill="none" stroke-linejoin="miter" d="M 0.999269 1.001087 L 27.875882 1.001366 " stroke="#aeb2bb" stroke-width="2" stroke-opacity="1" stroke-miterlimit="4"/><path stroke-linecap="round" transform="matrix(0.368733, -0.653097, 0.653097, 0.368733, 691.775827, 320.91153)" fill="none" stroke-linejoin="miter" d="M 0.997467 1.000232 L 19.27022 1.00101 " stroke="#aeb2bb" stroke-width="2" stroke-opacity="1" stroke-miterlimit="4"/><path stroke-linecap="round" transform="matrix(-0.586916, 0.466937, -0.466937, -0.586916, 802.352366, 229.570527)" fill="none" stroke-linejoin="miter" d="M 1.000606 1.002748 L 19.273805 0.998102 " stroke="#aeb2bb" stroke-width="2" stroke-opacity="1" stroke-miterlimit="4"/><path stroke-linecap="round" transform="matrix(0.498304, 0.560529, -0.560529, 0.498304, 827.001637, 417.96689)" fill="none" stroke-linejoin="miter" d="M 0.99992 1.003341 L 21.88413 0.997155 " stroke="#5e3aee" stroke-width="2" stroke-opacity="1" stroke-miterlimit="4"/><path stroke-linecap="round" transform="matrix(-0.571995, 0.485099, -0.485099, -0.571995, 881.770499, 574.033532)" fill="none" stroke-linejoin="miter" d="M 0.997396 1.000104 L 11.912974 0.997066 " stroke="#aeb2bb" stroke-width="2" stroke-opacity="1" stroke-miterlimit="4"/><g clip-path="url(#dc54bf1d4a)"><g clip-path="url(#aae13b90df)"><g clip-path="url(#3933d8a575)"><path fill="#aeb2bb" d="M 754.269531 551.453125 L 757.203125 549.574219 L 759.082031 552.507812 L 756.148438 554.386719 Z M 754.269531 551.453125 " fill-opacity="1" fill-rule="nonzero"/></g></g></g><path stroke-linecap="round" transform="matrix(0.389893, -0.64069, 0.64069, 0.389893, 629.670262, 579.901219)" fill="none" stroke-linejoin="miter" d="M 0.996685 0.99948 L 27.873379 1.001724 " stroke="#5e3aee" stroke-width="2" stroke-opacity="1" stroke-miterlimit="4"/><g clip-path="url(#d8014636e7)"><g clip-path="url(#5140aa0ab7)"><g clip-path="url(#dd303200c1)"><path fill="#aeb2bb" d="M 1134.792969 488.441406 L 1135.785156 484.613281 L 1139.609375 485.609375 L 1138.617188 489.433594 Z M 1134.792969 488.441406 " fill-opacity="1" fill-rule="nonzero"/></g></g></g><path stroke-linecap="round" transform="matrix(-0.299294, -0.687694, 0.687694, -0.299294, 1030.726829, 529.346781)" fill="none" stroke-linejoin="miter" d="M 1.001548 0.997842 L 21.887114 0.99918 " stroke="#5e3aee" stroke-width="2" stroke-opacity="1" stroke-miterlimit="4"/><path stroke-linecap="round" transform="matrix(0.718662, 0.214533, -0.214533, 0.718662, 1086.94613, 581.396995)" fill="none" stroke-linejoin="miter" d="M 0.999372 1.002749 L 11.913117 1.000647 " stroke="#aeb2bb" stroke-width="2" stroke-opacity="1" stroke-miterlimit="4"/><path stroke-linecap="round" transform="matrix(0.154576, 0.733898, -0.733898, 0.154576, 69.358174, 167.263006)" fill="none" stroke-linejoin="miter" d="M 1.000712 1.002205 L 19.273145 1.002566 " stroke="#aeb2bb" stroke-width="2" stroke-opacity="1" stroke-miterlimit="4"/><g clip-path="url(#d8c430191f)"><g clip-path="url(#d387c42419)"><g clip-path="url(#543458bf79)"><path fill="#aeb2bb" d="M 853.664062 324.355469 L 858.460938 321.28125 L 861.535156 326.078125 L 856.734375 329.152344 Z M 853.664062 324.355469 " fill-opacity="1" fill-rule="nonzero"/></g></g></g></svg>