<svg xmlns="http://www.w3.org/2000/svg" xmlns:xlink="http://www.w3.org/1999/xlink" width="1600" zoomAndPan="magnify" viewBox="0 0 1200 599.999999" height="800" preserveAspectRatio="xMidYMid meet" version="1.0"><defs><clipPath id="2e7c02faa7"><path d="M 214 520 L 218 520 L 218 524 L 214 524 Z M 214 520 " clip-rule="nonzero"/></clipPath><clipPath id="6cf31280cf"><path d="M 215.8125 523.617188 L 214.25 521.179688 L 216.6875 519.617188 L 218.25 522.058594 Z M 215.8125 523.617188 " clip-rule="nonzero"/></clipPath><clipPath id="275f5303bd"><path d="M 215.03125 522.398438 C 215.460938 523.074219 216.359375 523.269531 217.03125 522.839844 C 217.707031 522.40625 217.902344 521.511719 217.46875 520.835938 C 217.039062 520.164062 216.144531 519.96875 215.46875 520.398438 C 214.796875 520.832031 214.601562 521.726562 215.03125 522.398438 Z M 215.03125 522.398438 " clip-rule="nonzero"/></clipPath><clipPath id="b340a25663"><path d="M 28 162 L 30 162 L 30 164 L 28 164 Z M 28 162 " clip-rule="nonzero"/></clipPath><clipPath id="39f037ff25"><path d="M 30.175781 163.363281 L 28.699219 164.339844 L 27.722656 162.863281 L 29.199219 161.886719 Z M 30.175781 163.363281 " clip-rule="nonzero"/></clipPath><clipPath id="cafa1d5538"><path d="M 29.4375 163.851562 C 29.84375 163.582031 29.957031 163.035156 29.6875 162.625 C 29.417969 162.21875 28.867188 162.105469 28.460938 162.375 C 28.050781 162.644531 27.941406 163.195312 28.210938 163.601562 C 28.480469 164.011719 29.027344 164.121094 29.4375 163.851562 Z M 29.4375 163.851562 " clip-rule="nonzero"/></clipPath><clipPath id="d578eb43d4"><path d="M 203 233 L 207 233 L 207 237 L 203 237 Z M 203 233 " clip-rule="nonzero"/></clipPath><clipPath id="bd42ec3b6b"><path d="M 204.824219 236.769531 L 203.265625 234.328125 L 205.703125 232.769531 L 207.265625 235.207031 Z M 204.824219 236.769531 " clip-rule="nonzero"/></clipPath><clipPath id="2c505b2b11"><path d="M 204.046875 235.550781 C 204.476562 236.222656 205.371094 236.417969 206.046875 235.988281 C 206.71875 235.554688 206.914062 234.660156 206.484375 233.988281 C 206.050781 233.3125 205.15625 233.117188 204.484375 233.546875 C 203.808594 233.980469 203.613281 234.875 204.046875 235.550781 Z M 204.046875 235.550781 " clip-rule="nonzero"/></clipPath><clipPath id="811e7d4a60"><path d="M 647 437 L 650 437 L 650 440 L 647 440 Z M 647 437 " clip-rule="nonzero"/></clipPath><clipPath id="d5810178e9"><path d="M 647.015625 437.867188 L 648.492188 436.890625 L 649.46875 438.371094 L 647.992188 439.347656 Z M 647.015625 437.867188 " clip-rule="nonzero"/></clipPath><clipPath id="7d3cf75c5b"><path d="M 647.753906 437.378906 C 647.347656 437.648438 647.234375 438.199219 647.503906 438.605469 C 647.773438 439.015625 648.324219 439.128906 648.730469 438.859375 C 649.140625 438.585938 649.25 438.039062 648.980469 437.628906 C 648.710938 437.222656 648.164062 437.109375 647.753906 437.378906 Z M 647.753906 437.378906 " clip-rule="nonzero"/></clipPath><clipPath id="4f8af971f7"><path d="M 452 403 L 456 403 L 456 406 L 452 406 Z M 452 403 " clip-rule="nonzero"/></clipPath><clipPath id="c1f2cfda84"><path d="M 454.761719 402.527344 L 456.324219 404.964844 L 453.886719 406.527344 L 452.324219 404.089844 Z M 454.761719 402.527344 " clip-rule="nonzero"/></clipPath><clipPath id="c06b8cb402"><path d="M 455.542969 403.746094 C 455.113281 403.074219 454.21875 402.878906 453.542969 403.308594 C 452.871094 403.738281 452.675781 404.636719 453.105469 405.308594 C 453.535156 405.984375 454.433594 406.179688 455.105469 405.746094 C 455.78125 405.316406 455.976562 404.421875 455.542969 403.746094 Z M 455.542969 403.746094 " clip-rule="nonzero"/></clipPath><clipPath id="22d3dfd5ac"><path d="M 1186 315 L 1188 315 L 1188 317 L 1186 317 Z M 1186 315 " clip-rule="nonzero"/></clipPath><clipPath id="41d04727bf"><path d="M 1185.6875 315.621094 L 1187.207031 314.707031 L 1188.117188 316.222656 L 1186.601562 317.136719 Z M 1185.6875 315.621094 " clip-rule="nonzero"/></clipPath><clipPath id="4b76bf173b"><path d="M 1186.445312 315.164062 C 1186.027344 315.414062 1185.890625 315.960938 1186.144531 316.378906 C 1186.398438 316.796875 1186.941406 316.933594 1187.359375 316.679688 C 1187.777344 316.429688 1187.914062 315.882812 1187.660156 315.464844 C 1187.410156 315.046875 1186.867188 314.910156 1186.445312 315.164062 Z M 1186.445312 315.164062 " clip-rule="nonzero"/></clipPath><clipPath id="0ad87f3f48"><path d="M 1175 418 L 1179 418 L 1179 422 L 1175 422 Z M 1175 418 " clip-rule="nonzero"/></clipPath><clipPath id="d3ba39996e"><path d="M 1177.507812 418.433594 L 1179.070312 420.871094 L 1176.632812 422.433594 L 1175.070312 419.992188 Z M 1177.507812 418.433594 " clip-rule="nonzero"/></clipPath><clipPath id="b1027e8e85"><path d="M 1178.289062 419.652344 C 1177.859375 418.976562 1176.960938 418.78125 1176.289062 419.214844 C 1175.617188 419.644531 1175.417969 420.539062 1175.851562 421.214844 C 1176.28125 421.886719 1177.175781 422.082031 1177.851562 421.652344 C 1178.523438 421.21875 1178.722656 420.324219 1178.289062 419.652344 Z M 1178.289062 419.652344 " clip-rule="nonzero"/></clipPath><clipPath id="0018a3a5de"><path d="M 923 546 L 927 546 L 927 550 L 923 550 Z M 923 546 " clip-rule="nonzero"/></clipPath><clipPath id="8ece93a13f"><path d="M 924.554688 549.683594 L 922.992188 547.242188 L 925.429688 545.683594 L 926.992188 548.121094 Z M 924.554688 549.683594 " clip-rule="nonzero"/></clipPath><clipPath id="93e686c9db"><path d="M 923.773438 548.464844 C 924.203125 549.136719 925.101562 549.332031 925.773438 548.902344 C 926.445312 548.46875 926.644531 547.574219 926.210938 546.902344 C 925.78125 546.226562 924.882812 546.03125 924.210938 546.464844 C 923.539062 546.894531 923.339844 547.789062 923.773438 548.464844 Z M 923.773438 548.464844 " clip-rule="nonzero"/></clipPath><clipPath id="5d43b4d9a1"><path d="M 934 316 L 937 316 L 937 319 L 934 319 Z M 934 316 " clip-rule="nonzero"/></clipPath><clipPath id="f3cbf9e235"><path d="M 936.992188 317.421875 L 935.476562 318.335938 L 934.5625 316.816406 L 936.078125 315.902344 Z M 936.992188 317.421875 " clip-rule="nonzero"/></clipPath><clipPath id="627ca0c42b"><path d="M 936.234375 317.878906 C 936.652344 317.625 936.789062 317.082031 936.535156 316.660156 C 936.285156 316.242188 935.738281 316.105469 935.320312 316.359375 C 934.902344 316.613281 934.765625 317.15625 935.019531 317.574219 C 935.269531 317.996094 935.816406 318.128906 936.234375 317.878906 Z M 936.234375 317.878906 " clip-rule="nonzero"/></clipPath><clipPath id="f5bffbf4bc"><path d="M 944 211 L 948 211 L 948 215 L 944 215 Z M 944 211 " clip-rule="nonzero"/></clipPath><clipPath id="d2809db954"><path d="M 945.171875 214.609375 L 943.609375 212.171875 L 946.050781 210.609375 L 947.613281 213.046875 Z M 945.171875 214.609375 " clip-rule="nonzero"/></clipPath><clipPath id="a97e1d75c7"><path d="M 944.390625 213.390625 C 944.824219 214.0625 945.71875 214.257812 946.390625 213.828125 C 947.066406 213.398438 947.261719 212.5 946.832031 211.828125 C 946.398438 211.152344 945.503906 210.957031 944.832031 211.390625 C 944.15625 211.820312 943.960938 212.714844 944.390625 213.390625 Z M 944.390625 213.390625 " clip-rule="nonzero"/></clipPath><clipPath id="ac62759dec"><path d="M 150 365 L 154 365 L 154 369 L 150 369 Z M 150 365 " clip-rule="nonzero"/></clipPath><clipPath id="3344ccaee8"><path d="M 152.027344 365.441406 L 153.589844 367.878906 L 151.152344 369.441406 L 149.589844 367.003906 Z M 152.027344 365.441406 " clip-rule="nonzero"/></clipPath><clipPath id="947898c0f2"><path d="M 152.808594 366.660156 C 152.378906 365.984375 151.480469 365.789062 150.808594 366.222656 C 150.136719 366.652344 149.9375 367.546875 150.371094 368.222656 C 150.800781 368.894531 151.699219 369.089844 152.371094 368.660156 C 153.042969 368.230469 153.242188 367.332031 152.808594 366.660156 Z M 152.808594 366.660156 " clip-rule="nonzero"/></clipPath></defs><path stroke-linecap="round" transform="matrix(-0.462447, -0.59046, 0.59046, -0.462447, 41.93018, 555.017468)" fill="none" stroke-linejoin="miter" d="M 0.497201 0.501038 L 11.129769 0.499393 " stroke="#5e3aee" stroke-width="1" stroke-opacity="1" stroke-miterlimit="4"/><path stroke-linecap="round" transform="matrix(0.266844, 0.700924, -0.700924, 0.266844, 181.618615, 12.942425)" fill="none" stroke-linejoin="miter" d="M 0.499707 0.498793 L 11.132287 0.500657 " stroke="#5e3aee" stroke-width="1" stroke-opacity="1" stroke-miterlimit="4"/><path stroke-linecap="round" transform="matrix(0.619299, -0.423047, 0.423047, 0.619299, 128.392145, 479.813136)" fill="none" stroke-linejoin="miter" d="M 0.501651 0.499343 L 11.129748 0.499494 " stroke="#aeb2bb" stroke-width="1" stroke-opacity="1" stroke-miterlimit="4"/><path stroke-linecap="round" transform="matrix(0.741296, -0.113929, 0.113929, 0.741296, 252.028087, 469.578456)" fill="none" stroke-linejoin="miter" d="M 0.502062 0.498274 L 11.130623 0.498221 " stroke="#aeb2bb" stroke-width="1" stroke-opacity="1" stroke-miterlimit="4"/><path stroke-linecap="round" transform="matrix(0.424452, 0.618337, -0.618337, 0.424452, 281.575126, 570.310004)" fill="none" stroke-linejoin="miter" d="M 0.499473 0.50226 L 11.133693 0.499167 " stroke="#5e3aee" stroke-width="1" stroke-opacity="1" stroke-miterlimit="4"/><g clip-path="url(#2e7c02faa7)"><g clip-path="url(#6cf31280cf)"><g clip-path="url(#275f5303bd)"><path fill="#aeb2bb" d="M 215.8125 523.617188 L 214.25 521.179688 L 216.6875 519.617188 L 218.25 522.058594 Z M 215.8125 523.617188 " fill-opacity="1" fill-rule="nonzero"/></g></g></g><path stroke-linecap="round" transform="matrix(-0.64069, -0.389893, 0.389893, -0.64069, 154.093705, 589.604635)" fill="none" stroke-linejoin="miter" d="M 0.499148 0.499737 L 14.174644 0.49982 " stroke="#5e3aee" stroke-width="1" stroke-opacity="1" stroke-miterlimit="4"/><path stroke-linecap="round" transform="matrix(0.733898, -0.154576, 0.154576, 0.733898, 71.10426, 440.938705)" fill="none" stroke-linejoin="miter" d="M 0.498379 0.497201 L 9.80721 0.499141 " stroke="#aeb2bb" stroke-width="1" stroke-opacity="1" stroke-miterlimit="4"/><path stroke-linecap="round" transform="matrix(0.361166, -0.657312, 0.657312, 0.361166, 45.092166, 98.576939)" fill="none" stroke-linejoin="miter" d="M 0.499141 0.500712 L 9.804374 0.498646 " stroke="#aeb2bb" stroke-width="1" stroke-opacity="1" stroke-miterlimit="4"/><path stroke-linecap="round" transform="matrix(0.729012, 0.176186, -0.176186, 0.729012, 45.181647, 293.324393)" fill="none" stroke-linejoin="miter" d="M 0.498777 0.500778 L 11.134068 0.497075 " stroke="#5e3aee" stroke-width="1" stroke-opacity="1" stroke-miterlimit="4"/><g clip-path="url(#b340a25663)"><g clip-path="url(#39f037ff25)"><g clip-path="url(#cafa1d5538)"><path fill="#aeb2bb" d="M 30.175781 163.363281 L 28.699219 164.339844 L 27.722656 162.863281 L 29.199219 161.886719 Z M 30.175781 163.363281 " fill-opacity="1" fill-rule="nonzero"/></g></g></g><path stroke-linecap="round" transform="matrix(-0.600846, 0.448869, -0.448869, -0.600846, 294.607195, 360.816216)" fill="none" stroke-linejoin="miter" d="M 0.498774 0.502323 L 9.805034 0.498338 " stroke="#aeb2bb" stroke-width="1" stroke-opacity="1" stroke-miterlimit="4"/><path stroke-linecap="round" transform="matrix(0.485099, 0.571995, -0.571995, 0.485099, 288.543886, 202.95089)" fill="none" stroke-linejoin="miter" d="M 0.500672 0.501335 L 6.061837 0.498709 " stroke="#aeb2bb" stroke-width="1" stroke-opacity="1" stroke-miterlimit="4"/><path stroke-linecap="round" transform="matrix(0.214533, -0.718662, 0.718662, 0.214533, 286.204236, 67.238888)" fill="none" stroke-linejoin="miter" d="M 0.498533 0.501886 L 6.063414 0.498488 " stroke="#aeb2bb" stroke-width="1" stroke-opacity="1" stroke-miterlimit="4"/><g clip-path="url(#d578eb43d4)"><g clip-path="url(#bd42ec3b6b)"><g clip-path="url(#2c505b2b11)"><path fill="#aeb2bb" d="M 204.824219 236.769531 L 203.265625 234.328125 L 205.703125 232.769531 L 207.265625 235.207031 Z M 204.824219 236.769531 " fill-opacity="1" fill-rule="nonzero"/></g></g></g><path stroke-linecap="round" transform="matrix(-0.183885, -0.727108, 0.727108, -0.183885, 742.182857, 62.894681)" fill="none" stroke-linejoin="miter" d="M 0.502617 0.498814 L 9.802381 0.497647 " stroke="#aeb2bb" stroke-width="1" stroke-opacity="1" stroke-miterlimit="4"/><path stroke-linecap="round" transform="matrix(-0.266844, -0.700924, 0.700924, -0.266844, 531.780866, 586.209259)" fill="none" stroke-linejoin="miter" d="M 0.49938 0.497179 L 11.13196 0.499044 " stroke="#5e3aee" stroke-width="1" stroke-opacity="1" stroke-miterlimit="4"/><path stroke-linecap="round" transform="matrix(-0.619299, 0.423047, -0.423047, -0.619299, 437.61447, 122.612842)" fill="none" stroke-linejoin="miter" d="M 0.500185 0.498659 L 11.132582 0.501747 " stroke="#aeb2bb" stroke-width="1" stroke-opacity="1" stroke-miterlimit="4"/><path stroke-linecap="round" transform="matrix(-0.424452, -0.618337, 0.618337, -0.424452, 395.612768, 30.9245)" fill="none" stroke-linejoin="miter" d="M 0.499911 0.501924 L 11.134131 0.498831 " stroke="#5e3aee" stroke-width="1" stroke-opacity="1" stroke-miterlimit="4"/><path stroke-linecap="round" transform="matrix(-0.733898, 0.154576, -0.154576, -0.733898, 655.223109, 244.630937)" fill="none" stroke-linejoin="miter" d="M 0.5016 0.502288 L 9.806407 0.498059 " stroke="#aeb2bb" stroke-width="1" stroke-opacity="1" stroke-miterlimit="4"/><path stroke-linecap="round" transform="matrix(-0.711062, 0.238519, -0.238519, -0.711062, 641.151525, 366.667005)" fill="none" stroke-linejoin="miter" d="M 0.500762 0.501727 L 11.130645 0.502107 " stroke="#5e3aee" stroke-width="1" stroke-opacity="1" stroke-miterlimit="4"/><path stroke-linecap="round" transform="matrix(-0.196158, 0.723894, -0.723894, -0.196158, 635.026726, 572.515964)" fill="none" stroke-linejoin="miter" d="M 0.501928 0.499883 L 9.804696 0.499059 " stroke="#aeb2bb" stroke-width="1" stroke-opacity="1" stroke-miterlimit="4"/><path stroke-linecap="round" transform="matrix(0.284575, 0.693914, -0.693914, 0.284575, 655.017933, 513.408982)" fill="none" stroke-linejoin="miter" d="M 0.499874 0.501048 L 11.134248 0.499504 " stroke="#5e3aee" stroke-width="1" stroke-opacity="1" stroke-miterlimit="4"/><g clip-path="url(#811e7d4a60)"><g clip-path="url(#d5810178e9)"><g clip-path="url(#7d3cf75c5b)"><path fill="#aeb2bb" d="M 647.015625 437.867188 L 648.492188 436.890625 L 649.46875 438.371094 L 647.992188 439.347656 Z M 647.015625 437.867188 " fill-opacity="1" fill-rule="nonzero"/></g></g></g><path stroke-linecap="round" transform="matrix(-0.544108, -0.516184, 0.516184, -0.544108, 552.711769, 485.510591)" fill="none" stroke-linejoin="miter" d="M 0.498613 0.501273 L 14.174108 0.500386 " stroke="#5e3aee" stroke-width="1" stroke-opacity="1" stroke-miterlimit="4"/><path stroke-linecap="round" transform="matrix(0.405724, 0.630784, -0.630784, 0.405724, 517.137747, 204.869762)" fill="none" stroke-linejoin="miter" d="M 0.497263 0.50106 L 11.13185 0.498365 " stroke="#aeb2bb" stroke-width="1" stroke-opacity="1" stroke-miterlimit="4"/><path stroke-linecap="round" transform="matrix(0.600846, -0.448869, 0.448869, 0.600846, 367.902115, 238.780937)" fill="none" stroke-linejoin="miter" d="M 0.49989 0.497493 L 9.803033 0.497681 " stroke="#aeb2bb" stroke-width="1" stroke-opacity="1" stroke-miterlimit="4"/><path stroke-linecap="round" transform="matrix(0.653097, 0.368733, -0.368733, 0.653097, 923.360649, 440.729161)" fill="none" stroke-linejoin="miter" d="M 0.500072 0.497211 L 9.803422 0.502016 " stroke="#aeb2bb" stroke-width="1" stroke-opacity="1" stroke-miterlimit="4"/><path stroke-linecap="round" transform="matrix(0.64069, 0.389893, -0.389893, 0.64069, 481.950268, 308.345193)" fill="none" stroke-linejoin="miter" d="M 0.497582 0.49974 L 14.177527 0.497115 " stroke="#5e3aee" stroke-width="1" stroke-opacity="1" stroke-miterlimit="4"/><path stroke-linecap="round" transform="matrix(0.687694, -0.299294, 0.299294, 0.687694, 421.843087, 524.90179)" fill="none" stroke-linejoin="miter" d="M 0.498327 0.501695 L 11.132271 0.500357 " stroke="#5e3aee" stroke-width="1" stroke-opacity="1" stroke-miterlimit="4"/><path stroke-linecap="round" transform="matrix(-0.214533, 0.718662, -0.718662, -0.214533, 395.378833, 553.469996)" fill="none" stroke-linejoin="miter" d="M 0.500063 0.497438 L 6.061443 0.50052 " stroke="#aeb2bb" stroke-width="1" stroke-opacity="1" stroke-miterlimit="4"/><g clip-path="url(#4f8af971f7)"><g clip-path="url(#c1f2cfda84)"><g clip-path="url(#c06b8cb402)"><path fill="#aeb2bb" d="M 454.761719 402.527344 L 456.324219 404.964844 L 453.886719 406.527344 L 452.324219 404.089844 Z M 454.761719 402.527344 " fill-opacity="1" fill-rule="nonzero"/></g></g></g><path stroke-linecap="round" transform="matrix(-0.741296, 0.113929, -0.113929, -0.741296, 1147.904712, 147.560169)" fill="none" stroke-linejoin="miter" d="M 0.500628 0.500624 L 11.134336 0.501363 " stroke="#aeb2bb" stroke-width="1" stroke-opacity="1" stroke-miterlimit="4"/><path stroke-linecap="round" transform="matrix(-0.424452, -0.618337, 0.618337, -0.424452, 1118.357641, 46.828597)" fill="none" stroke-linejoin="miter" d="M 0.499572 0.497347 L 11.130844 0.498548 " stroke="#5e3aee" stroke-width="1" stroke-opacity="1" stroke-miterlimit="4"/><g clip-path="url(#22d3dfd5ac)"><g clip-path="url(#41d04727bf)"><g clip-path="url(#4b76bf173b)"><path fill="#aeb2bb" d="M 1185.6875 315.621094 L 1187.207031 314.707031 L 1188.117188 316.222656 L 1186.601562 317.136719 Z M 1185.6875 315.621094 " fill-opacity="1" fill-rule="nonzero"/></g></g></g><path stroke-linecap="round" transform="matrix(0.600846, -0.448869, 0.448869, 0.600846, 1109.716009, 252.02116)" fill="none" stroke-linejoin="miter" d="M 0.501006 0.501596 L 9.804148 0.501784 " stroke="#aeb2bb" stroke-width="1" stroke-opacity="1" stroke-miterlimit="4"/><path stroke-linecap="round" transform="matrix(0.544827, -0.515425, 0.515425, 0.544827, 1180.306822, 220.461032)" fill="none" stroke-linejoin="miter" d="M 0.498261 0.499877 L 11.131043 0.499758 " stroke="#5e3aee" stroke-width="1" stroke-opacity="1" stroke-miterlimit="4"/><path stroke-linecap="round" transform="matrix(-0.485099, -0.571995, 0.571995, -0.485099, 1121.877481, 465.081144)" fill="none" stroke-linejoin="miter" d="M 0.50103 0.502528 L 6.062196 0.499902 " stroke="#aeb2bb" stroke-width="1" stroke-opacity="1" stroke-miterlimit="4"/><path stroke-linecap="round" transform="matrix(0.64069, 0.389893, -0.389893, 0.64069, 1118.884177, 336.94688)" fill="none" stroke-linejoin="miter" d="M 0.497137 0.499817 L 14.177082 0.497192 " stroke="#5e3aee" stroke-width="1" stroke-opacity="1" stroke-miterlimit="4"/><path stroke-linecap="round" transform="matrix(0.687694, -0.299294, 0.299294, 0.687694, 1144.58784, 540.805965)" fill="none" stroke-linejoin="miter" d="M 0.500941 0.500169 L 11.134885 0.498831 " stroke="#5e3aee" stroke-width="1" stroke-opacity="1" stroke-miterlimit="4"/><path stroke-linecap="round" transform="matrix(-0.214533, 0.718662, -0.718662, -0.214533, 1118.123737, 569.3741)" fill="none" stroke-linejoin="miter" d="M 0.498851 0.50158 L 6.063732 0.498182 " stroke="#aeb2bb" stroke-width="1" stroke-opacity="1" stroke-miterlimit="4"/><g clip-path="url(#0ad87f3f48)"><g clip-path="url(#d3ba39996e)"><g clip-path="url(#b1027e8e85)"><path fill="#aeb2bb" d="M 1177.507812 418.433594 L 1179.070312 420.871094 L 1176.632812 422.433594 L 1175.070312 419.992188 Z M 1177.507812 418.433594 " fill-opacity="1" fill-rule="nonzero"/></g></g></g><path stroke-linecap="round" transform="matrix(-0.462447, -0.59046, 0.59046, -0.462447, 770.169232, 452.434897)" fill="none" stroke-linejoin="miter" d="M 0.497267 0.499785 L 11.133936 0.501352 " stroke="#5e3aee" stroke-width="1" stroke-opacity="1" stroke-miterlimit="4"/><path stroke-linecap="round" transform="matrix(0.183885, 0.727108, -0.727108, 0.183885, 740.069153, 559.676708)" fill="none" stroke-linejoin="miter" d="M 0.500568 0.50106 L 9.805381 0.50117 " stroke="#aeb2bb" stroke-width="1" stroke-opacity="1" stroke-miterlimit="4"/><path stroke-linecap="round" transform="matrix(0.619299, -0.423047, 0.423047, 0.619299, 839.334109, 499.769639)" fill="none" stroke-linejoin="miter" d="M 0.50064 0.499505 L 11.133037 0.502594 " stroke="#aeb2bb" stroke-width="1" stroke-opacity="1" stroke-miterlimit="4"/><path stroke-linecap="round" transform="matrix(0.741296, -0.113929, 0.113929, 0.741296, 974.772799, 485.482559)" fill="none" stroke-linejoin="miter" d="M 0.4983 0.500591 L 11.132008 0.50133 " stroke="#aeb2bb" stroke-width="1" stroke-opacity="1" stroke-miterlimit="4"/><path stroke-linecap="round" transform="matrix(0.424452, 0.618337, -0.618337, 0.424452, 1004.319918, 586.214179)" fill="none" stroke-linejoin="miter" d="M 0.498442 0.499446 L 11.129714 0.500647 " stroke="#5e3aee" stroke-width="1" stroke-opacity="1" stroke-miterlimit="4"/><g clip-path="url(#0018a3a5de)"><g clip-path="url(#8ece93a13f)"><g clip-path="url(#93e686c9db)"><path fill="#aeb2bb" d="M 924.554688 549.683594 L 922.992188 547.242188 L 925.429688 545.683594 L 926.992188 548.121094 Z M 924.554688 549.683594 " fill-opacity="1" fill-rule="nonzero"/></g></g></g><path stroke-linecap="round" transform="matrix(-0.64069, -0.389893, 0.389893, -0.64069, 877.881179, 586.531219)" fill="none" stroke-linejoin="miter" d="M 0.502345 0.499045 L 14.17784 0.499128 " stroke="#5e3aee" stroke-width="1" stroke-opacity="1" stroke-miterlimit="4"/><path stroke-linecap="round" transform="matrix(0.733898, -0.154576, 0.154576, 0.733898, 801.91667, 307.930056)" fill="none" stroke-linejoin="miter" d="M 0.498266 0.498318 L 9.802 0.499185 " stroke="#aeb2bb" stroke-width="1" stroke-opacity="1" stroke-miterlimit="4"/><path stroke-linecap="round" transform="matrix(0.361166, -0.657312, 0.657312, 0.361166, 708.920586, 165.091638)" fill="none" stroke-linejoin="miter" d="M 0.497869 0.500961 L 9.803102 0.498895 " stroke="#aeb2bb" stroke-width="1" stroke-opacity="1" stroke-miterlimit="4"/><path stroke-linecap="round" transform="matrix(0.544108, 0.516184, -0.516184, 0.544108, 847.222644, 131.628017)" fill="none" stroke-linejoin="miter" d="M 0.499865 0.496613 L 14.178944 0.499505 " stroke="#5e3aee" stroke-width="1" stroke-opacity="1" stroke-miterlimit="4"/><path stroke-linecap="round" transform="matrix(-0.405724, -0.630784, 0.630784, -0.405724, 896.25517, 37.261868)" fill="none" stroke-linejoin="miter" d="M 0.50197 0.500454 L 11.13374 0.502139 " stroke="#aeb2bb" stroke-width="1" stroke-opacity="1" stroke-miterlimit="4"/><g clip-path="url(#5d43b4d9a1)"><g clip-path="url(#f3cbf9e235)"><g clip-path="url(#627ca0c42b)"><path fill="#aeb2bb" d="M 936.992188 317.421875 L 935.476562 318.335938 L 934.5625 316.816406 L 936.078125 315.902344 Z M 936.992188 317.421875 " fill-opacity="1" fill-rule="nonzero"/></g></g></g><path stroke-linecap="round" transform="matrix(-0.600846, 0.448869, -0.448869, -0.600846, 1052.708044, 379.745423)" fill="none" stroke-linejoin="miter" d="M 0.498395 0.50124 L 9.804654 0.497256 " stroke="#aeb2bb" stroke-width="1" stroke-opacity="1" stroke-miterlimit="4"/><path stroke-linecap="round" transform="matrix(0.485099, 0.571995, -0.571995, 0.485099, 1000.804518, 167.961546)" fill="none" stroke-linejoin="miter" d="M 0.498717 0.497778 L 6.063855 0.49852 " stroke="#aeb2bb" stroke-width="1" stroke-opacity="1" stroke-miterlimit="4"/><path stroke-linecap="round" transform="matrix(-0.64069, -0.389893, 0.389893, -0.64069, 1003.795038, 296.095877)" fill="none" stroke-linejoin="miter" d="M 0.500901 0.497195 L 14.179104 0.501728 " stroke="#5e3aee" stroke-width="1" stroke-opacity="1" stroke-miterlimit="4"/><path stroke-linecap="round" transform="matrix(-0.687694, 0.299294, -0.299294, -0.687694, 978.089599, 92.236847)" fill="none" stroke-linejoin="miter" d="M 0.498275 0.498781 L 11.132218 0.497443 " stroke="#5e3aee" stroke-width="1" stroke-opacity="1" stroke-miterlimit="4"/><path stroke-linecap="round" transform="matrix(0.214533, -0.718662, 0.718662, 0.214533, 1004.558502, 63.668681)" fill="none" stroke-linejoin="miter" d="M 0.497638 0.498393 L 6.064009 0.499985 " stroke="#aeb2bb" stroke-width="1" stroke-opacity="1" stroke-miterlimit="4"/><g clip-path="url(#f5bffbf4bc)"><g clip-path="url(#d2809db954)"><g clip-path="url(#a97e1d75c7)"><path fill="#aeb2bb" d="M 945.171875 214.609375 L 943.609375 212.171875 L 946.050781 210.609375 L 947.613281 213.046875 Z M 945.171875 214.609375 " fill-opacity="1" fill-rule="nonzero"/></g></g></g><g clip-path="url(#ac62759dec)"><g clip-path="url(#3344ccaee8)"><g clip-path="url(#947898c0f2)"><path fill="#aeb2bb" d="M 152.027344 365.441406 L 153.589844 367.878906 L 151.152344 369.441406 L 149.589844 367.003906 Z M 152.027344 365.441406 " fill-opacity="1" fill-rule="nonzero"/></g></g></g></svg>