<svg xmlns="http://www.w3.org/2000/svg" xmlns:xlink="http://www.w3.org/1999/xlink" width="1600" zoomAndPan="magnify" viewBox="0 0 1200 599.999999" height="800" preserveAspectRatio="xMidYMid meet" version="1.0"><defs><clipPath id="5a6549e87e"><path d="M 1064.265625 242.792969 L 1067.753906 242.792969 L 1067.753906 246.28125 L 1064.265625 246.28125 Z M 1064.265625 242.792969 " clip-rule="nonzero"/></clipPath><clipPath id="f4ff80bb83"><path d="M 1066.007812 242.792969 C 1065.046875 242.792969 1064.265625 243.574219 1064.265625 244.539062 C 1064.265625 245.5 1065.046875 246.28125 1066.007812 246.28125 C 1066.972656 246.28125 1067.753906 245.5 1067.753906 244.539062 C 1067.753906 243.574219 1066.972656 242.792969 1066.007812 242.792969 Z M 1066.007812 242.792969 " clip-rule="nonzero"/></clipPath><clipPath id="8ab77d799d"><path d="M 993.175781 181.074219 L 997.128906 181.074219 L 997.128906 185.027344 L 993.175781 185.027344 Z M 993.175781 181.074219 " clip-rule="nonzero"/></clipPath><clipPath id="3dec064539"><path d="M 995.152344 181.074219 C 994.0625 181.074219 993.175781 181.957031 993.175781 183.050781 C 993.175781 184.140625 994.0625 185.027344 995.152344 185.027344 C 996.246094 185.027344 997.128906 184.140625 997.128906 183.050781 C 997.128906 181.957031 996.246094 181.074219 995.152344 181.074219 Z M 995.152344 181.074219 " clip-rule="nonzero"/></clipPath><clipPath id="9892a3a931"><path d="M 972.195312 260.257812 L 977.890625 260.257812 L 977.890625 265.957031 L 972.195312 265.957031 Z M 972.195312 260.257812 " clip-rule="nonzero"/></clipPath><clipPath id="926f43098b"><path d="M 975.042969 260.257812 C 973.46875 260.257812 972.195312 261.535156 972.195312 263.109375 C 972.195312 264.679688 973.46875 265.957031 975.042969 265.957031 C 976.617188 265.957031 977.890625 264.679688 977.890625 263.109375 C 977.890625 261.535156 976.617188 260.257812 975.042969 260.257812 Z M 975.042969 260.257812 " clip-rule="nonzero"/></clipPath><clipPath id="df3029a6fb"><path d="M 1036.878906 312.910156 L 1040.9375 312.910156 L 1040.9375 316.964844 L 1036.878906 316.964844 Z M 1036.878906 312.910156 " clip-rule="nonzero"/></clipPath><clipPath id="018eb3f68b"><path d="M 1038.910156 312.910156 C 1037.789062 312.910156 1036.878906 313.816406 1036.878906 314.9375 C 1036.878906 316.058594 1037.789062 316.964844 1038.910156 316.964844 C 1040.027344 316.964844 1040.9375 316.058594 1040.9375 314.9375 C 1040.9375 313.816406 1040.027344 312.910156 1038.910156 312.910156 Z M 1038.910156 312.910156 " clip-rule="nonzero"/></clipPath><clipPath id="e13bed1811"><path d="M 986.34375 471.636719 L 990.960938 471.636719 L 990.960938 476.253906 L 986.34375 476.253906 Z M 986.34375 471.636719 " clip-rule="nonzero"/></clipPath><clipPath id="1ca34237f1"><path d="M 988.652344 471.636719 C 987.378906 471.636719 986.34375 472.667969 986.34375 473.945312 C 986.34375 475.21875 987.378906 476.253906 988.652344 476.253906 C 989.929688 476.253906 990.960938 475.21875 990.960938 473.945312 C 990.960938 472.667969 989.929688 471.636719 988.652344 471.636719 Z M 988.652344 471.636719 " clip-rule="nonzero"/></clipPath></defs><g clip-path="url(#5a6549e87e)"><g clip-path="url(#f4ff80bb83)"><path fill="#aeb2bb" d="M 1064.265625 242.792969 L 1067.753906 242.792969 L 1067.753906 246.28125 L 1064.265625 246.28125 Z M 1064.265625 242.792969 " fill-opacity="1" fill-rule="nonzero"/></g></g><g clip-path="url(#8ab77d799d)"><g clip-path="url(#3dec064539)"><path fill="#aeb2bb" d="M 993.175781 181.074219 L 997.128906 181.074219 L 997.128906 185.027344 L 993.175781 185.027344 Z M 993.175781 181.074219 " fill-opacity="1" fill-rule="nonzero"/></g></g><g clip-path="url(#9892a3a931)"><g clip-path="url(#926f43098b)"><path fill="#aeb2bb" d="M 972.195312 260.257812 L 977.890625 260.257812 L 977.890625 265.957031 L 972.195312 265.957031 Z M 972.195312 260.257812 " fill-opacity="1" fill-rule="nonzero"/></g></g><g clip-path="url(#df3029a6fb)"><g clip-path="url(#018eb3f68b)"><path fill="#aeb2bb" d="M 1036.878906 312.910156 L 1040.9375 312.910156 L 1040.9375 316.964844 L 1036.878906 316.964844 Z M 1036.878906 312.910156 " fill-opacity="1" fill-rule="nonzero"/></g></g><g clip-path="url(#e13bed1811)"><g clip-path="url(#1ca34237f1)"><path fill="#aeb2bb" d="M 986.34375 471.636719 L 990.960938 471.636719 L 990.960938 476.253906 L 986.34375 476.253906 Z M 986.34375 471.636719 " fill-opacity="1" fill-rule="nonzero"/></g></g><path stroke-linecap="round" transform="matrix(-0.663327, 0.349996, -0.349996, -0.663327, 599.400335, 149.822474)" fill="none" stroke-linejoin="miter" d="M 0.999519 1.00175 L 19.272071 1.002926 " stroke="#aeb2bb" stroke-width="2" stroke-opacity="1" stroke-miterlimit="4"/><path stroke-linecap="round" transform="matrix(0.0460813, 0.748583, -0.748583, 0.0460813, 689.658907, 160.027588)" fill="none" stroke-linejoin="miter" d="M 0.99747 0.999008 L 27.876353 0.999453 " stroke="#aeb2bb" stroke-width="2" stroke-opacity="1" stroke-miterlimit="4"/><path stroke-linecap="round" transform="matrix(0.150201, 0.734806, -0.734806, 0.150201, 650.601117, 208.428791)" fill="none" stroke-linejoin="miter" d="M 0.998067 1.000813 L 11.91224 0.999044 " stroke="#aeb2bb" stroke-width="2" stroke-opacity="1" stroke-miterlimit="4"/><path stroke-linecap="round" transform="matrix(0.508357, 0.551428, -0.551428, 0.508357, 656.244117, 99.889667)" fill="none" stroke-linejoin="miter" d="M 0.99812 1.00158 L 21.882321 1.000583 " stroke="#aeb2bb" stroke-width="2" stroke-opacity="1" stroke-miterlimit="4"/><path stroke-linecap="round" transform="matrix(0.113929, 0.741296, -0.741296, 0.113929, 700.725907, 251.6667)" fill="none" stroke-linejoin="miter" d="M 1.001815 1.00147 L 21.884733 1.001818 " stroke="#aeb2bb" stroke-width="2" stroke-opacity="1" stroke-miterlimit="4"/><path stroke-linecap="round" transform="matrix(-0.206458, 0.721024, -0.721024, -0.206458, 641.520261, 270.621952)" fill="none" stroke-linejoin="miter" d="M 0.999902 0.998682 L 19.273869 0.999553 " stroke="#aeb2bb" stroke-width="2" stroke-opacity="1" stroke-miterlimit="4"/><path stroke-linecap="round" transform="matrix(0.745399, 0.0829449, -0.0829449, 0.745399, 578.9964, 300.000389)" fill="none" stroke-linejoin="miter" d="M 1.001636 0.999002 L 21.885273 1.001932 " stroke="#aeb2bb" stroke-width="2" stroke-opacity="1" stroke-miterlimit="4"/><path stroke-linecap="round" transform="matrix(0.568913, 0.488711, -0.488711, 0.568913, 577.881768, 349.639282)" fill="none" stroke-linejoin="miter" d="M 0.997572 0.999286 L 27.874372 1.002334 " stroke="#aeb2bb" stroke-width="2" stroke-opacity="1" stroke-miterlimit="4"/><path stroke-linecap="round" transform="matrix(0.512119, 0.547936, -0.547936, 0.512119, 622.922134, 349.638257)" fill="none" stroke-linejoin="miter" d="M 1.001249 1.000434 L 21.883799 0.998682 " stroke="#aeb2bb" stroke-width="2" stroke-opacity="1" stroke-miterlimit="4"/><path stroke-linecap="round" transform="matrix(-0.590277, -0.46268, 0.46268, -0.590277, 607.933559, 409.098699)" fill="none" stroke-linejoin="miter" d="M 1.000404 0.997763 L 19.274417 1.001177 " stroke="#aeb2bb" stroke-width="2" stroke-opacity="1" stroke-miterlimit="4"/><path stroke-linecap="round" transform="matrix(-0.491765, 0.566275, -0.566275, -0.491765, 644.539485, 463.777272)" fill="none" stroke-linejoin="miter" d="M 1.000633 1.001175 L 11.914049 1.001796 " stroke="#aeb2bb" stroke-width="2" stroke-opacity="1" stroke-miterlimit="4"/><path stroke-linecap="round" transform="matrix(-0.325104, 0.675875, -0.675875, -0.325104, 572.41644, 522.763534)" fill="none" stroke-linejoin="miter" d="M 0.999579 1.002271 L 21.885996 1.000489 " stroke="#aeb2bb" stroke-width="2" stroke-opacity="1" stroke-miterlimit="4"/><path stroke-linecap="round" transform="matrix(0.10823, -0.74215, 0.74215, 0.10823, 629.480902, 533.710845)" fill="none" stroke-linejoin="miter" d="M 0.998562 1.00122 L 27.873145 0.997999 " stroke="#aeb2bb" stroke-width="2" stroke-opacity="1" stroke-miterlimit="4"/><path stroke-linecap="round" transform="matrix(0.493531, 0.564737, -0.564737, 0.493531, 582.985296, 467.498064)" fill="none" stroke-linejoin="miter" d="M 0.998326 0.998585 L 11.91314 0.998721 " stroke="#aeb2bb" stroke-width="2" stroke-opacity="1" stroke-miterlimit="4"/><path stroke-linecap="round" transform="matrix(0.406902, -0.630024, 0.630024, 0.406902, 925.002921, 417.23549)" fill="none" stroke-linejoin="miter" d="M 1.000159 0.998651 L 19.273934 1.001611 " stroke="#aeb2bb" stroke-width="2" stroke-opacity="1" stroke-miterlimit="4"/><path stroke-linecap="round" transform="matrix(-0.68921, -0.295786, 0.295786, -0.68921, 993.360774, 407.274843)" fill="none" stroke-linejoin="miter" d="M 0.998697 1.001697 L 21.883261 0.999402 " stroke="#aeb2bb" stroke-width="2" stroke-opacity="1" stroke-miterlimit="4"/><path stroke-linecap="round" transform="matrix(-0.402518, -0.632834, 0.632834, -0.402518, 1008.835278, 360.097241)" fill="none" stroke-linejoin="miter" d="M 0.99873 1.000477 L 27.873266 1.002195 " stroke="#aeb2bb" stroke-width="2" stroke-opacity="1" stroke-miterlimit="4"/><path stroke-linecap="round" transform="matrix(-0.330976, -0.673019, 0.673019, -0.330976, 965.738575, 347.022075)" fill="none" stroke-linejoin="miter" d="M 0.997432 1.000836 L 21.886486 1.000412 " stroke="#aeb2bb" stroke-width="2" stroke-opacity="1" stroke-miterlimit="4"/><path stroke-linecap="round" transform="matrix(0.733571, -0.15612, 0.15612, 0.733571, 1067.596131, 569.793332)" fill="none" stroke-linejoin="miter" d="M 0.998027 1.000003 L 19.272915 1.002056 " stroke="#aeb2bb" stroke-width="2" stroke-opacity="1" stroke-miterlimit="4"/><path stroke-linecap="round" transform="matrix(-0.11905, -0.740491, 0.740491, -0.11905, 1002.16695, 562.808492)" fill="none" stroke-linejoin="miter" d="M 0.999506 1.000827 L 11.914227 0.998953 " stroke="#aeb2bb" stroke-width="2" stroke-opacity="1" stroke-miterlimit="4"/><path stroke-linecap="round" transform="matrix(0.499977, 0.559038, -0.559038, 0.499977, 958.165496, 506.403406)" fill="none" stroke-linejoin="miter" d="M 0.997667 0.999642 L 27.872524 0.998404 " stroke="#aeb2bb" stroke-width="2" stroke-opacity="1" stroke-miterlimit="4"/><path stroke-linecap="round" transform="matrix(-0.74982, 0.0164361, -0.0164361, -0.74982, 1038.792028, 513.196174)" fill="none" stroke-linejoin="miter" d="M 0.997851 1.002424 L 11.91194 1.00202 " stroke="#aeb2bb" stroke-width="2" stroke-opacity="1" stroke-miterlimit="4"/><path stroke-linecap="round" transform="matrix(-0.585652, 0.468521, -0.468521, -0.585652, 1073.729259, 402.461487)" fill="none" stroke-linejoin="miter" d="M 0.998771 1.000052 L 11.911413 0.999239 " stroke="#aeb2bb" stroke-width="2" stroke-opacity="1" stroke-miterlimit="4"/><path stroke-linecap="round" transform="matrix(0.685119, -0.305142, 0.305142, 0.685119, 1056.122428, 466.618008)" fill="none" stroke-linejoin="miter" d="M 1.001748 0.998018 L 21.885625 1.000144 " stroke="#5e3aee" stroke-width="2" stroke-opacity="1" stroke-miterlimit="4"/><path stroke-linecap="round" transform="matrix(-0.0706042, 0.746669, -0.746669, -0.0706042, 1077.516507, 520.051054)" fill="none" stroke-linejoin="miter" d="M 0.999263 1.000089 L 19.272981 0.998564 " stroke="#aeb2bb" stroke-width="2" stroke-opacity="1" stroke-miterlimit="4"/><path stroke-linecap="round" transform="matrix(0.673862, -0.329256, 0.329256, 0.673862, 1002.909798, 229.219037)" fill="none" stroke-linejoin="miter" d="M 1.002042 0.999301 L 27.87559 1.000239 " stroke="#5e3aee" stroke-width="2" stroke-opacity="1" stroke-miterlimit="4"/><path stroke-linecap="round" transform="matrix(0.59046, -0.462447, 0.462447, 0.59046, 1021.782605, 149.059173)" fill="none" stroke-linejoin="miter" d="M 1.000189 1.00068 L 21.887086 0.998858 " stroke="#5e3aee" stroke-width="2" stroke-opacity="1" stroke-miterlimit="4"/><path stroke-linecap="round" transform="matrix(-0.618337, 0.424452, -0.424452, -0.618337, 579.298632, 219.303805)" fill="none" stroke-linejoin="miter" d="M 1.001718 1.00206 L 21.881477 1.000714 " stroke="#5e3aee" stroke-width="2" stroke-opacity="1" stroke-miterlimit="4"/><path stroke-linecap="round" transform="matrix(0.689775, -0.294466, 0.294466, 0.689775, 506.220675, 463.880808)" fill="none" stroke-linejoin="miter" d="M 0.997162 1.000566 L 27.873976 1.000918 " stroke="#5e3aee" stroke-width="2" stroke-opacity="1" stroke-miterlimit="4"/></svg>